<mxfile host="Electron" agent="Mozilla/5.0 (Windows NT 10.0; Win64; x64) AppleWebKit/537.36 (KHTML, like Gecko) draw.io/26.2.2 Chrome/134.0.6998.178 Electron/35.1.2 Safari/537.36" version="26.2.2" pages="4">
  <diagram id="7yiu5rjuNcQsvgtusuqP" name="full-deployment">
    <mxGraphModel dx="1126" dy="515" grid="1" gridSize="10" guides="1" tooltips="1" connect="1" arrows="1" fold="1" page="1" pageScale="1" pageWidth="850" pageHeight="1100" math="0" shadow="0">
      <root>
        <mxCell id="0" />
        <mxCell id="1" parent="0" />
        <mxCell id="6" style="edgeStyle=none;html=1;entryX=0;entryY=0.5;entryDx=0;entryDy=0;exitX=1;exitY=0.5;exitDx=0;exitDy=0;" parent="1" source="2" target="5" edge="1">
          <mxGeometry relative="1" as="geometry" />
        </mxCell>
        <mxCell id="2" value="MQTT publisher" style="rounded=0;whiteSpace=wrap;html=1;" parent="1" vertex="1">
          <mxGeometry x="30" y="70" width="120" height="60" as="geometry" />
        </mxCell>
        <mxCell id="7" style="edgeStyle=none;html=1;exitX=1;exitY=0.5;exitDx=0;exitDy=0;" parent="1" source="3" edge="1">
          <mxGeometry relative="1" as="geometry">
            <mxPoint x="190" y="180" as="targetPoint" />
          </mxGeometry>
        </mxCell>
        <mxCell id="3" value="MQTT publisher" style="rounded=0;whiteSpace=wrap;html=1;" parent="1" vertex="1">
          <mxGeometry x="30" y="150" width="120" height="60" as="geometry" />
        </mxCell>
        <mxCell id="8" style="edgeStyle=none;html=1;entryX=0;entryY=0.5;entryDx=0;entryDy=0;exitX=1;exitY=0.5;exitDx=0;exitDy=0;" parent="1" source="4" target="5" edge="1">
          <mxGeometry relative="1" as="geometry" />
        </mxCell>
        <mxCell id="4" value="MQTT publisher" style="rounded=0;whiteSpace=wrap;html=1;" parent="1" vertex="1">
          <mxGeometry x="30" y="230" width="120" height="60" as="geometry" />
        </mxCell>
        <mxCell id="9" value="Grafana" style="rounded=0;whiteSpace=wrap;html=1;" parent="1" vertex="1">
          <mxGeometry x="700" y="130" width="120" height="40" as="geometry" />
        </mxCell>
        <mxCell id="15" style="edgeStyle=none;html=1;" parent="1" source="10" target="9" edge="1">
          <mxGeometry relative="1" as="geometry" />
        </mxCell>
        <mxCell id="10" value="Prometheus" style="rounded=0;whiteSpace=wrap;html=1;" parent="1" vertex="1">
          <mxGeometry x="700" y="200" width="120" height="40" as="geometry" />
        </mxCell>
        <mxCell id="14" style="edgeStyle=none;html=1;" parent="1" source="11" target="10" edge="1">
          <mxGeometry relative="1" as="geometry" />
        </mxCell>
        <mxCell id="11" value="Storm exporter" style="rounded=0;whiteSpace=wrap;html=1;" parent="1" vertex="1">
          <mxGeometry x="700" y="260" width="120" height="40" as="geometry" />
        </mxCell>
        <mxCell id="18" value="Worker process" style="rounded=0;whiteSpace=wrap;html=1;" parent="1" vertex="1">
          <mxGeometry x="60" y="400" width="120" height="60" as="geometry" />
        </mxCell>
        <mxCell id="19" value="Worker process" style="rounded=0;whiteSpace=wrap;html=1;" parent="1" vertex="1">
          <mxGeometry x="200" y="400" width="120" height="60" as="geometry" />
        </mxCell>
        <mxCell id="20" value="Worker process" style="rounded=0;whiteSpace=wrap;html=1;" parent="1" vertex="1">
          <mxGeometry x="60" y="480" width="120" height="60" as="geometry" />
        </mxCell>
        <mxCell id="21" value="Worker process" style="rounded=0;whiteSpace=wrap;html=1;" parent="1" vertex="1">
          <mxGeometry x="200" y="480" width="120" height="60" as="geometry" />
        </mxCell>
        <mxCell id="47" value="Openstack" style="swimlane;whiteSpace=wrap;html=1;" parent="1" vertex="1">
          <mxGeometry x="20" y="40" width="640" height="260" as="geometry" />
        </mxCell>
        <mxCell id="5" value="MQTT broker" style="shape=process;whiteSpace=wrap;html=1;backgroundOutline=1;" parent="47" vertex="1">
          <mxGeometry x="150" y="110" width="120" height="60" as="geometry" />
        </mxCell>
        <mxCell id="16" value="Nimbus" style="rounded=0;whiteSpace=wrap;html=1;" parent="47" vertex="1">
          <mxGeometry x="290" y="110" width="120" height="60" as="geometry" />
        </mxCell>
        <mxCell id="17" value="Zookeeper" style="rounded=0;whiteSpace=wrap;html=1;" parent="47" vertex="1">
          <mxGeometry x="430" y="110" width="120" height="60" as="geometry" />
        </mxCell>
        <mxCell id="48" style="edgeStyle=none;html=1;entryX=0;entryY=0.5;entryDx=0;entryDy=0;" parent="47" source="16" target="17" edge="1">
          <mxGeometry relative="1" as="geometry" />
        </mxCell>
        <mxCell id="50" value="" style="edgeStyle=elbowEdgeStyle;html=1;entryX=1;entryY=0.5;entryDx=0;entryDy=0;" parent="1" target="26" edge="1">
          <mxGeometry relative="1" as="geometry">
            <mxPoint x="820" y="280" as="sourcePoint" />
            <mxPoint x="760" y="400" as="targetPoint" />
            <Array as="points">
              <mxPoint x="840" y="360" />
            </Array>
          </mxGeometry>
        </mxCell>
        <mxCell id="51" value="Monitoring stack" style="swimlane;whiteSpace=wrap;html=1;" parent="1" vertex="1">
          <mxGeometry x="690" y="100" width="140" height="210" as="geometry" />
        </mxCell>
        <mxCell id="52" value="Supervisor" style="swimlane;whiteSpace=wrap;html=1;" parent="1" vertex="1">
          <mxGeometry x="50" y="370" width="280" height="180" as="geometry" />
        </mxCell>
        <mxCell id="53" value="Worker process" style="rounded=0;whiteSpace=wrap;html=1;" parent="1" vertex="1">
          <mxGeometry x="360" y="400" width="120" height="60" as="geometry" />
        </mxCell>
        <mxCell id="54" value="Worker process" style="rounded=0;whiteSpace=wrap;html=1;" parent="1" vertex="1">
          <mxGeometry x="500" y="400" width="120" height="60" as="geometry" />
        </mxCell>
        <mxCell id="55" value="Worker process" style="rounded=0;whiteSpace=wrap;html=1;" parent="1" vertex="1">
          <mxGeometry x="360" y="480" width="120" height="60" as="geometry" />
        </mxCell>
        <mxCell id="56" value="Worker process" style="rounded=0;whiteSpace=wrap;html=1;" parent="1" vertex="1">
          <mxGeometry x="500" y="480" width="120" height="60" as="geometry" />
        </mxCell>
        <mxCell id="57" value="Supervisor" style="swimlane;whiteSpace=wrap;html=1;" parent="1" vertex="1">
          <mxGeometry x="350" y="370" width="280" height="180" as="geometry">
            <mxRectangle x="340" y="520" width="100" height="30" as="alternateBounds" />
          </mxGeometry>
        </mxCell>
        <mxCell id="58" value="AWS" style="swimlane;whiteSpace=wrap;html=1;" parent="1" vertex="1">
          <mxGeometry x="40" y="340" width="600" height="220" as="geometry" />
        </mxCell>
        <mxCell id="59" value="Localhost" style="swimlane;whiteSpace=wrap;html=1;" parent="1" vertex="1">
          <mxGeometry x="680" y="70" width="170" height="450" as="geometry" />
        </mxCell>
        <mxCell id="28" style="edgeStyle=none;html=1;entryX=0.5;entryY=0;entryDx=0;entryDy=0;" parent="59" source="26" target="27" edge="1">
          <mxGeometry relative="1" as="geometry" />
        </mxCell>
        <mxCell id="26" value="Resources forecast" style="rounded=0;whiteSpace=wrap;html=1;" parent="59" vertex="1">
          <mxGeometry x="20" y="290" width="120" height="60" as="geometry" />
        </mxCell>
        <mxCell id="49" value="Autoscaling stack" style="swimlane;whiteSpace=wrap;html=1;" parent="59" vertex="1">
          <mxGeometry x="10" y="260" width="140" height="180" as="geometry" />
        </mxCell>
        <mxCell id="27" value="Autoscaler" style="rounded=0;whiteSpace=wrap;html=1;" parent="49" vertex="1">
          <mxGeometry x="10" y="110" width="120" height="60" as="geometry" />
        </mxCell>
        <mxCell id="60" style="edgeStyle=elbowEdgeStyle;html=1;entryX=0.5;entryY=1;entryDx=0;entryDy=0;elbow=vertical;" parent="1" source="27" target="57" edge="1">
          <mxGeometry relative="1" as="geometry">
            <Array as="points">
              <mxPoint x="630" y="560" />
            </Array>
          </mxGeometry>
        </mxCell>
        <mxCell id="61" style="edgeStyle=elbowEdgeStyle;html=1;entryX=0.5;entryY=1;entryDx=0;entryDy=0;elbow=vertical;" parent="1" source="27" target="52" edge="1">
          <mxGeometry relative="1" as="geometry">
            <Array as="points">
              <mxPoint x="480" y="560" />
            </Array>
          </mxGeometry>
        </mxCell>
        <mxCell id="62" style="edgeStyle=none;html=1;entryX=0.5;entryY=0;entryDx=0;entryDy=0;" parent="1" source="5" target="52" edge="1">
          <mxGeometry relative="1" as="geometry" />
        </mxCell>
        <mxCell id="64" style="edgeStyle=none;html=1;entryX=0.5;entryY=0;entryDx=0;entryDy=0;" parent="1" source="5" target="57" edge="1">
          <mxGeometry relative="1" as="geometry" />
        </mxCell>
        <mxCell id="65" style="edgeStyle=none;html=1;entryX=0.5;entryY=1;entryDx=0;entryDy=0;exitX=0.5;exitY=0;exitDx=0;exitDy=0;" parent="1" source="52" target="17" edge="1">
          <mxGeometry relative="1" as="geometry" />
        </mxCell>
        <mxCell id="67" style="edgeStyle=elbowEdgeStyle;html=1;exitX=0.75;exitY=0;exitDx=0;exitDy=0;elbow=vertical;entryX=0.5;entryY=1;entryDx=0;entryDy=0;" parent="1" source="52" target="11" edge="1">
          <mxGeometry relative="1" as="geometry">
            <mxPoint x="730" y="300" as="targetPoint" />
            <Array as="points">
              <mxPoint x="510" y="320" />
            </Array>
          </mxGeometry>
        </mxCell>
        <mxCell id="68" style="edgeStyle=elbowEdgeStyle;html=1;entryX=0.5;entryY=1;entryDx=0;entryDy=0;elbow=vertical;exitX=0.75;exitY=0;exitDx=0;exitDy=0;" parent="1" source="57" target="11" edge="1">
          <mxGeometry relative="1" as="geometry">
            <Array as="points">
              <mxPoint x="620" y="320" />
            </Array>
          </mxGeometry>
        </mxCell>
        <mxCell id="66" style="edgeStyle=none;html=1;exitX=0.5;exitY=0;exitDx=0;exitDy=0;" parent="1" source="57" edge="1">
          <mxGeometry relative="1" as="geometry">
            <mxPoint x="510" y="210" as="targetPoint" />
            <mxPoint x="490" y="350" as="sourcePoint" />
          </mxGeometry>
        </mxCell>
      </root>
    </mxGraphModel>
  </diagram>
  <diagram id="4w0XA5oVs5r0GqUPByuR" name="Page-2">
    <mxGraphModel dx="1126" dy="657" grid="1" gridSize="10" guides="1" tooltips="1" connect="1" arrows="1" fold="1" page="1" pageScale="1" pageWidth="850" pageHeight="1100" math="0" shadow="0">
      <root>
        <mxCell id="0" />
        <mxCell id="1" parent="0" />
        <mxCell id="MajFrNoK99F9Yv2fWuJb-1" style="edgeStyle=none;html=1;entryX=0;entryY=0.5;entryDx=0;entryDy=0;exitX=1;exitY=0.5;exitDx=0;exitDy=0;" parent="1" source="MajFrNoK99F9Yv2fWuJb-2" target="MajFrNoK99F9Yv2fWuJb-7" edge="1">
          <mxGeometry relative="1" as="geometry" />
        </mxCell>
        <mxCell id="MajFrNoK99F9Yv2fWuJb-2" value="MQTT publisher" style="rounded=0;whiteSpace=wrap;html=1;" parent="1" vertex="1">
          <mxGeometry x="30" y="70" width="120" height="60" as="geometry" />
        </mxCell>
        <mxCell id="MajFrNoK99F9Yv2fWuJb-3" style="edgeStyle=none;html=1;exitX=1;exitY=0.5;exitDx=0;exitDy=0;" parent="1" source="MajFrNoK99F9Yv2fWuJb-4" edge="1">
          <mxGeometry relative="1" as="geometry">
            <mxPoint x="190" y="180" as="targetPoint" />
          </mxGeometry>
        </mxCell>
        <mxCell id="MajFrNoK99F9Yv2fWuJb-4" value="MQTT publisher" style="rounded=0;whiteSpace=wrap;html=1;" parent="1" vertex="1">
          <mxGeometry x="30" y="150" width="120" height="60" as="geometry" />
        </mxCell>
        <mxCell id="MajFrNoK99F9Yv2fWuJb-5" style="edgeStyle=none;html=1;entryX=0;entryY=0.5;entryDx=0;entryDy=0;exitX=1;exitY=0.5;exitDx=0;exitDy=0;" parent="1" source="MajFrNoK99F9Yv2fWuJb-6" target="MajFrNoK99F9Yv2fWuJb-7" edge="1">
          <mxGeometry relative="1" as="geometry" />
        </mxCell>
        <mxCell id="MajFrNoK99F9Yv2fWuJb-6" value="MQTT publisher" style="rounded=0;whiteSpace=wrap;html=1;" parent="1" vertex="1">
          <mxGeometry x="30" y="230" width="120" height="60" as="geometry" />
        </mxCell>
        <mxCell id="MajFrNoK99F9Yv2fWuJb-7" value="MQTT broker" style="shape=process;whiteSpace=wrap;html=1;backgroundOutline=1;" parent="1" vertex="1">
          <mxGeometry x="170" y="150" width="120" height="60" as="geometry" />
        </mxCell>
      </root>
    </mxGraphModel>
  </diagram>
  <diagram id="jUzxARhwgoYP9MbFQzU3" name="architect">
    <mxGraphModel dx="1126" dy="657" grid="1" gridSize="10" guides="1" tooltips="1" connect="1" arrows="1" fold="1" page="1" pageScale="1" pageWidth="827" pageHeight="1169" math="0" shadow="0">
      <root>
        <mxCell id="0" />
        <mxCell id="1" parent="0" />
        <mxCell id="tBAlruEkkoA2uosvEb_w-55" style="edgeStyle=none;html=1;entryX=1;entryY=0.5;entryDx=0;entryDy=0;" parent="1" source="tBAlruEkkoA2uosvEb_w-24" target="tBAlruEkkoA2uosvEb_w-52" edge="1">
          <mxGeometry relative="1" as="geometry" />
        </mxCell>
        <mxCell id="tBAlruEkkoA2uosvEb_w-24" value="AWS/VPC" style="sketch=0;outlineConnect=0;gradientColor=none;html=1;whiteSpace=wrap;fontSize=12;fontStyle=0;shape=mxgraph.aws4.group;grIcon=mxgraph.aws4.group_vpc;strokeColor=#879196;fillColor=none;verticalAlign=top;align=left;spacingLeft=30;fontColor=#879196;dashed=0;" parent="1" vertex="1">
          <mxGeometry x="580" y="60" width="240" height="430" as="geometry" />
        </mxCell>
        <mxCell id="tBAlruEkkoA2uosvEb_w-9" style="edgeStyle=none;html=1;entryX=0;entryY=0.5;entryDx=0;entryDy=0;startArrow=classic;startFill=1;" parent="1" source="tBAlruEkkoA2uosvEb_w-2" target="tBAlruEkkoA2uosvEb_w-5" edge="1">
          <mxGeometry relative="1" as="geometry" />
        </mxCell>
        <mxCell id="tBAlruEkkoA2uosvEb_w-2" value="MQTT Publishers" style="sketch=0;outlineConnect=0;fontColor=#232F3E;gradientColor=none;strokeColor=#232F3E;fillColor=#ffffff;dashed=0;verticalLabelPosition=bottom;verticalAlign=top;align=center;html=1;fontSize=12;fontStyle=0;aspect=fixed;shape=mxgraph.aws4.resourceIcon;resIcon=mxgraph.aws4.sensor;" parent="1" vertex="1">
          <mxGeometry x="50" y="95" width="60" height="60" as="geometry" />
        </mxCell>
        <mxCell id="tBAlruEkkoA2uosvEb_w-8" style="edgeStyle=none;html=1;startArrow=classic;startFill=1;" parent="1" source="tBAlruEkkoA2uosvEb_w-5" target="tBAlruEkkoA2uosvEb_w-12" edge="1">
          <mxGeometry relative="1" as="geometry">
            <mxPoint x="440" y="165.30811232449298" as="targetPoint" />
          </mxGeometry>
        </mxCell>
        <mxCell id="tBAlruEkkoA2uosvEb_w-5" value="" style="shape=mxgraph.gcp2.doubleRect;strokeColor=#dddddd;shadow=1;strokeWidth=1;rounded=1;absoluteArcSize=1;arcSize=2;" parent="1" vertex="1">
          <mxGeometry x="190" y="80" width="168.75" height="90" as="geometry" />
        </mxCell>
        <mxCell id="tBAlruEkkoA2uosvEb_w-6" value="&lt;font color=&quot;#000000&quot;&gt;MQTT Broker&lt;/font&gt;&lt;br&gt;Pub/Sub" style="editableCssRules=.*;html=1;fontColor=#999999;shape=image;verticalLabelPosition=middle;verticalAlign=middle;labelPosition=right;align=left;spacingLeft=20;part=1;points=[];imageAspect=0;image=data:image/svg+xml,PHN2ZyB4bWxucz0iaHR0cDovL3d3dy53My5vcmcvMjAwMC9zdmciIHhtbG5zOnY9Imh0dHBzOi8vdmVjdGEuaW8vbmFubyIgd2lkdGg9IjE4LjMxOTk5OTY5NDgyNDIyIiBoZWlnaHQ9IjIwLjAwMDAwMTkwNzM0ODYzMyIgdmlld0JveD0iMCAwIDE4LjMxOTk5OTY5NDgyNDIyIDIwLjAwMDAwMTkwNzM0ODYzMyI+JiN4YTsJPHN0eWxlIHR5cGU9InRleHQvY3NzIj4mI3hhOwkuc3Qwe2ZpbGw6IzY2OWRmNjt9JiN4YTsJLnN0MXtmaWxsOiM0Mjg1ZjQ7fSYjeGE7CS5zdDJ7ZmlsbDojYWVjYmZhO30mI3hhOwk8L3N0eWxlPiYjeGE7CTxkZWZzPiYjeGE7CQk8ZmlsdGVyIGlkPSJBIiB4PSI0LjY0IiB5PSI0LjE5IiB3aWR0aD0iMTQuNzMiIGhlaWdodD0iMTIuNzYiIGZpbHRlclVuaXRzPSJ1c2VyU3BhY2VPblVzZSIgY29sb3ItaW50ZXJwb2xhdGlvbi1maWx0ZXJzPSJzUkdCIj4mI3hhOwkJCTxmZUZsb29kIGZsb29kLWNvbG9yPSIjZmZmIi8+JiN4YTsJCQk8ZmVCbGVuZCBpbj0iU291cmNlR3JhcGhpYyIvPiYjeGE7CQk8L2ZpbHRlcj4mI3hhOwkJPG1hc2sgaWQ9IkIiIHg9IjQuNjQiIHk9IjQuMTkiIHdpZHRoPSIxNC43MyIgaGVpZ2h0PSIxMi43NiIgbWFza1VuaXRzPSJ1c2VyU3BhY2VPblVzZSI+JiN4YTsJCQk8Y2lyY2xlIGN4PSIxMiIgY3k9IjEyLjIzIiByPSIzLjU4IiBmaWx0ZXI9InVybCgjQSkiLz4mI3hhOwkJPC9tYXNrPiYjeGE7CTwvZGVmcz4mI3hhOwk8ZyBjbGFzcz0ic3QwIj4mI3hhOwkJPGNpcmNsZSBjeD0iMTYuMTMiIGN5PSI2LjIxIiByPSIxLjcyIi8+JiN4YTsJCTxjaXJjbGUgY3g9IjIuMTkiIGN5PSI2LjIxIiByPSIxLjcyIi8+JiN4YTsJCTxjaXJjbGUgY3g9IjkuMTYiIGN5PSIxOC4yOCIgcj0iMS43MiIvPiYjeGE7CTwvZz4mI3hhOwk8ZyBtYXNrPSJ1cmwoI0IpIiB0cmFuc2Zvcm09InRyYW5zbGF0ZSgtMi44NCAtMikiPiYjeGE7CQk8cGF0aCB0cmFuc2Zvcm09Im1hdHJpeCguNSAtLjg3IC44NyAuNSAtNC41OSAyMC41MykiIGQ9Ik0xNC42OSAxMC4yMmgxLjU5djguMDRoLTEuNTl6IiBjbGFzcz0ic3QxIi8+JiN4YTsJCTxwYXRoIHRyYW5zZm9ybT0icm90YXRlKDMzMCA4LjUyMyAxNC4yNDQpIiBkPSJNNC40OSAxMy40NWg4LjA0djEuNTlINC40OXoiIGNsYXNzPSJzdDEiLz4mI3hhOwkJPHBhdGggZD0iTTExLjIgNC4xOWgxLjU5djguMDRIMTEuMnoiIGNsYXNzPSJzdDEiLz4mI3hhOwk8L2c+JiN4YTsJPGcgY2xhc3M9InN0MiI+JiN4YTsJCTxjaXJjbGUgY3g9IjkuMTYiIGN5PSIxMC4yMyIgcj0iMi43OCIvPiYjeGE7CQk8Y2lyY2xlIGN4PSIyLjE5IiBjeT0iMTQuMjUiIHI9IjIuMTkiLz4mI3hhOwkJPGNpcmNsZSBjeD0iMTYuMTMiIGN5PSIxNC4yNSIgcj0iMi4xOSIvPiYjeGE7CQk8Y2lyY2xlIGN4PSI5LjE2IiBjeT0iMi4xOSIgcj0iMi4xOSIvPiYjeGE7CTwvZz4mI3hhOzwvc3ZnPg==;" parent="tBAlruEkkoA2uosvEb_w-5" vertex="1">
          <mxGeometry width="45" height="50" relative="1" as="geometry">
            <mxPoint x="16" y="15" as="offset" />
          </mxGeometry>
        </mxCell>
        <mxCell id="tBAlruEkkoA2uosvEb_w-53" style="edgeStyle=none;html=1;orthogonal=1;" parent="1" source="tBAlruEkkoA2uosvEb_w-12" target="tBAlruEkkoA2uosvEb_w-24" edge="1">
          <mxGeometry relative="1" as="geometry" />
        </mxCell>
        <mxCell id="tBAlruEkkoA2uosvEb_w-12" value="Nimbus" style="sketch=0;outlineConnect=0;fontColor=#232F3E;gradientColor=none;strokeColor=#232F3E;fillColor=#ffffff;dashed=0;verticalLabelPosition=bottom;verticalAlign=top;align=center;html=1;fontSize=12;fontStyle=0;aspect=fixed;shape=mxgraph.aws4.resourceIcon;resIcon=mxgraph.aws4.traditional_server;" parent="1" vertex="1">
          <mxGeometry x="440" y="95" width="60" height="60" as="geometry" />
        </mxCell>
        <mxCell id="tBAlruEkkoA2uosvEb_w-25" value="Supervisor virtual machine 01" style="swimlane;whiteSpace=wrap;html=1;" parent="1" vertex="1">
          <mxGeometry x="600" y="90" width="200" height="180" as="geometry" />
        </mxCell>
        <mxCell id="tBAlruEkkoA2uosvEb_w-26" value="" style="image;sketch=0;aspect=fixed;html=1;points=[];align=center;fontSize=12;image=img/lib/mscae/Kubernetes_Services.svg;container=0;imageBorder=none;" parent="tBAlruEkkoA2uosvEb_w-25" vertex="1">
          <mxGeometry x="62.16" y="30" width="75.68" height="56" as="geometry" />
        </mxCell>
        <mxCell id="tBAlruEkkoA2uosvEb_w-27" value="" style="image;sketch=0;aspect=fixed;html=1;points=[];align=center;fontSize=12;image=img/lib/mscae/Docker.svg;" parent="tBAlruEkkoA2uosvEb_w-25" vertex="1">
          <mxGeometry x="63.41" y="100" width="73.17" height="60" as="geometry" />
        </mxCell>
        <mxCell id="tBAlruEkkoA2uosvEb_w-28" value="" style="endArrow=none;html=1;exitX=0;exitY=0.5;exitDx=0;exitDy=0;entryX=1;entryY=0.5;entryDx=0;entryDy=0;" parent="1" source="tBAlruEkkoA2uosvEb_w-25" target="tBAlruEkkoA2uosvEb_w-25" edge="1">
          <mxGeometry width="50" height="50" relative="1" as="geometry">
            <mxPoint x="840" y="50" as="sourcePoint" />
            <mxPoint x="890" as="targetPoint" />
          </mxGeometry>
        </mxCell>
        <mxCell id="tBAlruEkkoA2uosvEb_w-33" value="Supervisor virtual machine nth" style="swimlane;whiteSpace=wrap;html=1;" parent="1" vertex="1">
          <mxGeometry x="600" y="290" width="200" height="180" as="geometry" />
        </mxCell>
        <mxCell id="tBAlruEkkoA2uosvEb_w-34" value="" style="image;sketch=0;aspect=fixed;html=1;points=[];align=center;fontSize=12;image=img/lib/mscae/Kubernetes_Services.svg;container=0;imageBorder=none;" parent="tBAlruEkkoA2uosvEb_w-33" vertex="1">
          <mxGeometry x="62.16" y="30" width="75.68" height="56" as="geometry" />
        </mxCell>
        <mxCell id="tBAlruEkkoA2uosvEb_w-35" value="" style="image;sketch=0;aspect=fixed;html=1;points=[];align=center;fontSize=12;image=img/lib/mscae/Docker.svg;" parent="tBAlruEkkoA2uosvEb_w-33" vertex="1">
          <mxGeometry x="63.41" y="100" width="73.17" height="60" as="geometry" />
        </mxCell>
        <mxCell id="tBAlruEkkoA2uosvEb_w-36" value="" style="endArrow=none;html=1;exitX=0;exitY=0.5;exitDx=0;exitDy=0;entryX=1;entryY=0.5;entryDx=0;entryDy=0;" parent="1" source="tBAlruEkkoA2uosvEb_w-33" target="tBAlruEkkoA2uosvEb_w-33" edge="1">
          <mxGeometry width="50" height="50" relative="1" as="geometry">
            <mxPoint x="840" y="250" as="sourcePoint" />
            <mxPoint x="890" y="200" as="targetPoint" />
          </mxGeometry>
        </mxCell>
        <mxCell id="tBAlruEkkoA2uosvEb_w-44" value="" style="endArrow=none;dashed=1;html=1;shape=link;" parent="1" edge="1">
          <mxGeometry width="50" height="50" relative="1" as="geometry">
            <mxPoint x="580" y="280" as="sourcePoint" />
            <mxPoint x="820" y="280" as="targetPoint" />
          </mxGeometry>
        </mxCell>
        <mxCell id="tBAlruEkkoA2uosvEb_w-64" style="edgeStyle=none;html=1;entryX=1;entryY=0.5;entryDx=0;entryDy=0;" parent="1" source="tBAlruEkkoA2uosvEb_w-52" target="tBAlruEkkoA2uosvEb_w-61" edge="1">
          <mxGeometry relative="1" as="geometry" />
        </mxCell>
        <mxCell id="tBAlruEkkoA2uosvEb_w-52" value="Storm exporter" style="swimlane;whiteSpace=wrap;html=1;" parent="1" vertex="1">
          <mxGeometry x="420" y="225" width="100" height="100" as="geometry" />
        </mxCell>
        <mxCell id="tBAlruEkkoA2uosvEb_w-51" value="" style="sketch=0;aspect=fixed;pointerEvents=1;shadow=0;dashed=0;html=1;strokeColor=none;labelPosition=center;verticalLabelPosition=bottom;verticalAlign=top;align=center;fillColor=#00188D;shape=mxgraph.mscae.enterprise.monitor_running_apps" parent="tBAlruEkkoA2uosvEb_w-52" vertex="1">
          <mxGeometry x="13.449999999999989" y="35" width="73.1" height="57.02" as="geometry" />
        </mxCell>
        <mxCell id="CT-6-n2FGpjn5c_quiCv-7" style="edgeStyle=none;html=1;entryX=0.5;entryY=0;entryDx=0;entryDy=0;" parent="1" source="tBAlruEkkoA2uosvEb_w-61" target="CT-6-n2FGpjn5c_quiCv-2" edge="1">
          <mxGeometry relative="1" as="geometry" />
        </mxCell>
        <mxCell id="tBAlruEkkoA2uosvEb_w-61" value="Monitoring" style="swimlane;whiteSpace=wrap;html=1;" parent="1" vertex="1">
          <mxGeometry x="184.38" y="195" width="180" height="160" as="geometry" />
        </mxCell>
        <mxCell id="tBAlruEkkoA2uosvEb_w-62" value="" style="shape=image;verticalLabelPosition=bottom;labelBackgroundColor=default;verticalAlign=top;aspect=fixed;imageAspect=0;image=data:image/png,iVBORw0KGgoAAAANSUhEUgAAAWQAAACNCAMAAAC3+fDsAAABa1BMVEX////mUixfX1/rXC1UVFQAAABRUVFaWlpWVlblTibYQh9cXFze3t741MzkSBvpclbzr6PkQxBiYmLvuK/wvbXm5ubZSCn19fX549/cXELYRCD1sSL66OXS0tL98/HjgnHom43WOxLhfGnpopX1rCP119GlpaWcnJy0tLTNzc3fZ1DdYUjxiiTWNQBra2vwhSZ8fHzzmCXZTC+MjIyurq7CwsLvfinyx8DzmyT1pCLmWTTkh3fmkoPaUjbpThLqVSDrZimGhobtcip2dnb1nwDgcV3oSQDtd1XwhArykgD2uQDhKwDoZkfUIwDqeV/nYD0jIyMWFhbvi3DscU3wk3vyoIvufVbviWTqXRHtdkTzrJP4zLz2vKXsaBvsZADyo33viVPteTfwiEvymmbtdQ7xmFb1uJL3xqT748/ynEb1rm73vor61bf959X1rl/61ar3sUz5wXj3w3D5zmj725b97MT3wBz2vwD++Ofhom3BAAANvElEQVR4nO2d/V/bthaHHTe1HTtJ8+oknmPisBADc5o5ZGkDgQUKg7Zr77jlXraWvbK3u7br1pb1z79Hkt8SHOhnCzgYfX8AWZZk5cnJ0TmyCQxDRUVFRUVFRXU11Ah7AtdAq5mwZxB9FR70wp5C9NXP5sOeQuRVzibqYc8h8sqnY1lSSoU7kShrPh1LY3+hroU9lShKLaCfADnxEBUe0SDjIpRFDmItHYtlIVLWHsyHPZ9Iqo8s+FEiFksfgG/OPgp7PpFUIltmmBhAjsUYZj+dDns+UVQjm85ABIcYA+1+IkuTkukrk4YIOZPGkAtaNpa4FfaMIqiHCQgrHmJvkc40wKKpKU9dyFH0G9hbxBJPelBIPA57TpHTATiK/uMYgVzHbiNbCHtSUVMi5ilxaz6Nf4U9qYjJdhS2Hj/BzLNq2NOKlmppP+RYH/9M+3Y9G2s1rLX8xd45yetm+UIvEKJuJWKnlfZtEhVMWVaQRH0w/W0NrafZpbyoRxZyAOJRp1wQLUtG0mVLX5r25eufO/FihCFr2fMhyzVcKK+Klrg65esv6RQy44OMOFjTBjG4DpCZIJccS/h24nyQmW1ZnK5b1sRrAflh4MJX8xr4IWcUGfkLDS9WWsoNN7RGqqG5PfBprWHXwLmRgFBtNLwwRdV1526XA1nzN0bDeCNrvpIW1GBWNZ8OgJz13efzQ06JMrrbWtch+lgVdb2Ca8tzsq7ryrbdSTV1jakpUIMCwRo6t+xiTS1BN90iIzZ6a7K8lgExNuTG3EAZzLkWXZ5T0Mir5F2CIM8ZZ1kckGvhBvLajGNWA5xyou9r4IeMmMCvulJnlnVR1PH97bwpi+JAFGWTrIqqLva2zcqSLJspZtm0lioiKpEBdFkcLKH2iJtpQuQimqapMBiyumbCqNDadiEZGNlaHoiK3iAz0R3ISzJ+f8t4uIouzmyIbc9r7rQpZ23Hq6EmfsgDS0TbGnV5e95c7fUyCEbBtOSMCgFvRRZxeK3qljhAN7LqytK8iYYqKBYxvBrYO4ypwZgoGEz1aopc64EYvKpWzFpZUzOipWDL7JnWIAWl1EDGFachL8sy6tqYW75QUv9A/cSjGnoN/aDYQkvV6n38TJEP8rZsyejV1mXLdHJCTbHsl64NSAkgVzTnFOkKPgOdAcPbJr169oKXF0VnMwogyw27JKLRNftqMKIi1pgAyGVdmfW7vvlsIp3NPt7fH1/6Emv1fjabThCvAZDX1DIoP4BsBCOpy7IbL+dFec0rzjEIsmLfi92WdeJNyzqOSlZlN4BYkomr8UN2Ecr4ZIGwRqopAyYAcgMc0zSJXIQI0cTp8MKuIjuekPGBDwUplqwTw6nLurvSQFTnrmqQGjJ+yHPkYw5VolKDXwPZzRjnFfx5H4XsvAMV3G5OFp2r9ERRDYCs6vLyrG9l9QITEQ81fgzDg6zrzrIPluwOMnA+0wx66YjFRMgaeN3VOaxVWBbRqUmQkY+tWJbdeq6OPwKnfXIdsqPVGTfm/aDwzVv+yGsGdzFXAOW9cNQHGRynxXj1iMVEyOCsLcWWLOOl8CzIA6+1IgdaMlxBl2VdXJ3pJ6v7iclyHvIsiMr44y5/E7Kme3GKrTMhy2PbUQGQmcaaBZzNWX4gR314a6JqdpuzISN7c8vb57gLBS+Mfp0FeYkYu6cgyAzirFvmjPuM83QOZADrpofEqicvfJVxbGdCXnNiE28mgZDRunhqildM50D2hXCZ8RBuHDLk2mPP5Z4FuafjTp56XuPtEchMZazlbCkzWY4VnQMZQgZfMoIwTYYMbQf26qkRj38WZAgvXMvN4z0n07JzGUgKMWRnMGvKm4PTVT89SQ8cmzsHMkp+lXlIqwvA2E6rJ0Fm8ro8QN5TzcgmrmjoKO9IIdCnITcgP0d0tULFxHTBNdU0tG1kDkjGZ85hU1hV9FkOlx8HbifjAM6FrJ8NGZFTdEsXZcLYB7nuQnY++fOmrMuVgS7qFUK0IstWRTfVIMjgHyBCr1REXVTwwqaKsgK9TbMwLyLIGVPUt9dWLdGc6T93eR/IonwKsiL6D1V4mZAQeludogNZsTNDSKtrpKpBtkWXHCrqEhwO0FHe/NyBbOn2AqlBgKbr4vK87RfUOuREYr0M7zzZhYNE3TTF+kzHyUwsO0kPzvjTEW/L3FH51Kb9aDtfh/Fd9nKKsFVTKae64d0OYMqjrTX7Qs6AWnn29+xTkzXrU6eiGld53IjDnlAUlX8w6o5jYU8oilJ3RuKKNP1DvotQfWTLkz7SeSHS+j7K9AnwC5J2K2tnJWnK+OJUeIjXvMSsPyZyxaWleqlZfUSEioqKioqKioqKioqKiuq6auVfXyTDnkPktXDzJoV80aKQL0EU8iWIQr4EUcgXqipSsnPzppHEpbDnE0WVbo4p7AlFUeOQvwh7QlFUqbmA1Lp5s4MLC2FPKMKiC98liEK+BFHIlyAK+RJEIV+CmhTyJahUCnsGVFRUVFRUVFRUVFRUVFRUVFT/VJnZ/gKaSGh/feeKf4Xg7Gt+/caNHWrLFyp15waof35Dqr+vgw0EeeMr9LU5Wi9P/8R9+ir8GzMGyus7+0921ndm+Rsbr5jUwsHBQUFN3Vi/4WkDeG/Q/2s9LT3Z2UBaX3esGLRBTJr+B9VpaX/DZ787n331tNxoFA7661D92anGxW6z02l2iyHM80rriQd5Z9/75qfGZ+s31seccrXNCTwv8QLXrl7yLK+4Mi7kjdHv4nu6sTEaMnc4iWUloAw/uc573/03tnK5HNuZ0nSvplLOercx/pU5GkQb3lEpx7OswG11mu24ILE8+34+oyhBY5blrrnp25a8HpDoPfYcRimHwHax/Za6OeF9sbHQLc5xuSlN9qrKzkAOvBrve3rXXVNu86ww9Jo0OeO9BjcEVugUi8Vr/2jRp0iHDtjCfw4PDzf++xQfPHW8cpcDWP5O7/nxb0v89fbGjo6A8ZFtyOVPDz8l0L/ELvrLr0i9xEqtvzM2uPFr7o2JGgjrIbHY8tdQPDo6PHKqnn6L6xfjLBf8wGapPVxhus3hcNjGx8mVzrBjgHcwDORQcqxgJEFklSwacHIFBuoaqEnJMKrQYThs+t+IEhptoYpaG5HxMs+ONjc3j0j5u82jL1Oapj7bhMqvkS1/jes7vNQO7l3i+HYuzkuS0ISjaosjgXSTgUiEQZBZIR6Pcyuo6RDCbBxllzocB9iLXLzT4QRJ4rmWG6ssxKER1OSqi9yEN/YK6htgvPktLgLvH+zaH4Dyd+g3PspJQje4dykO8QPLCwKitkIiafghtFqswGDIQIxHy2SS4+2TkrTFEshQJJG3xBHKpZbAOjVtKR4VyM8Q481vcPn7zWO3/vvNzeNndrnEs87rTS76VMWQIQruGEYXr46swHeawziPyBPIUrvT6Qy7iCjLc+1mRwKMrAOZZeOthQWICCUJD9+Cnlyr2WzB2yWxUYH8w/EnoOOf8MHx8c/uiRdw4ju7DCRtS4PYLe6KaxHIAmGBmGG/wJQ6CD2B7IBqATOSJhqcDzIJBZsQ6Rnkt9TCHZIQl0cFMmH8ySfEko+PX3infgT2dlznhxznbcHHeguf4lfsUzzLOU4FaDmQyaIGS6cbzC1yLmS+Saq2JDwY+A8nbSlFBvLPx7eJfsSHu37IP92+ffycFH3uwmg6aknSEEN2TvkwIi8+CrnDs7x7Er0dBLLTtyug5oY/kVyMRwTyrs349i4+/HHXcxfMT7u3d23IaOE7leFtSfyCHzJC5oViK/woZHDI3h8DJ+MOZOcDgmJEHMT4ovGI+ORfdj+yRXC+2N317uv9tvuRC7nJo0/ziBDTRT/kKnDy4lo4GoEMGeOie7LEBUMeSpIvPxxGJLp46VL+FR8D2F8Y5h0m/SvU/s9uB150PGZFH3lmMuRFYRQyMPeCwDMg+/ZHogIZqH5MtEeM9vnHu3t7e8gzv9hDtY77gBBrNK1O2ovWiLvwGWtzzF20JGeNY8j7EQQZOvm264RouAvQi5d7e4TyO7vi+S/490tSazeDEHhkp6cIwQW2W9/Cl5M8n1Iajy6Q4bt23paCIaO1zrV3IzqQGUZ7/uoO1jt/7e97uG7P8cpDsMy2S6kKKRkJ13yQERVncWvzY5DB8t23YCXOBkNmUC+7BjpECDLyDHfu3r1z595zr+r3e7jm3kt3IcxBDBZfQARK1SEKdMmn3weZgRw5PkQtqpC4jUFmOgLLt1C5iDOVYMgoZ4yTvSOcDUYIMvMbIAXde2VjfvEKVdz743efceNdBT7O53JCXHIZj0Auolw4zrYkaMCPxckkY47zLRbl3BPcBUoo4c0R4BroYtGCzPx5l+je3Vd//PbHh4T5q7FGTbTDgyUJvOM6S/64I8mjfQl8o7W5JY1BZrbw9hEy0K2ONAEyXEQi1+ClBT5ikD8M0KlWxSbPCYIQ51reRm+J4/3B3QJuwW0tMi0OO1nBdy+w28InWQNQok5F6OtAhiIZM9nm4nANoVmqRmirE+mDAAU+bpjsGsbimfepq10DP/ySTCJChmH4W0P3LqouJpOT9+OLi4ZRRX75rEZXUKcR3w97StET4XrywX0QgXwS9pSip9eI7p8QVrx98+b1/ZOTk/uvw55S9PT29Zu37sHrv05O/np3RmuqKejtyV9vwp7DNRC1YyoqKiqqy9f/AVWs07uLA4wsAAAAAElFTkSuQmCC;clipPath=inset(2.94% 20.33% 0% 18%);" parent="tBAlruEkkoA2uosvEb_w-61" vertex="1">
          <mxGeometry x="10" y="39.54" width="160.91" height="100.46" as="geometry" />
        </mxCell>
        <mxCell id="tBAlruEkkoA2uosvEb_w-69" style="edgeStyle=none;html=1;exitX=1;exitY=0.5;exitDx=0;exitDy=0;orthogonal=1;" parent="1" source="tBAlruEkkoA2uosvEb_w-67" edge="1">
          <mxGeometry relative="1" as="geometry">
            <mxPoint x="580" y="440" as="targetPoint" />
          </mxGeometry>
        </mxCell>
        <mxCell id="tBAlruEkkoA2uosvEb_w-65" value="" style="image;aspect=fixed;html=1;points=[];align=center;fontSize=12;image=img/lib/azure2/general/Scale.svg;" parent="1" vertex="1">
          <mxGeometry x="438.5" y="420" width="60" height="60" as="geometry" />
        </mxCell>
        <mxCell id="tBAlruEkkoA2uosvEb_w-67" value="Autoscaler" style="swimlane;whiteSpace=wrap;html=1;" parent="1" vertex="1">
          <mxGeometry x="431.5" y="390" width="77" height="100" as="geometry" />
        </mxCell>
        <mxCell id="CT-6-n2FGpjn5c_quiCv-1" value="" style="sketch=0;points=[[0,0,0],[0.25,0,0],[0.5,0,0],[0.75,0,0],[1,0,0],[0,1,0],[0.25,1,0],[0.5,1,0],[0.75,1,0],[1,1,0],[0,0.25,0],[0,0.5,0],[0,0.75,0],[1,0.25,0],[1,0.5,0],[1,0.75,0]];outlineConnect=0;fontColor=#232F3E;fillColor=#80FF00;strokeColor=#ffffff;dashed=0;verticalLabelPosition=bottom;verticalAlign=top;align=center;html=1;fontSize=12;fontStyle=0;aspect=fixed;shape=mxgraph.aws4.resourceIcon;resIcon=mxgraph.aws4.machine_learning;" parent="1" vertex="1">
          <mxGeometry x="237.88" y="412" width="78" height="78" as="geometry" />
        </mxCell>
        <mxCell id="CT-6-n2FGpjn5c_quiCv-5" style="edgeStyle=none;html=1;entryX=0;entryY=0.5;entryDx=0;entryDy=0;" parent="1" source="CT-6-n2FGpjn5c_quiCv-2" target="tBAlruEkkoA2uosvEb_w-67" edge="1">
          <mxGeometry relative="1" as="geometry" />
        </mxCell>
        <mxCell id="CT-6-n2FGpjn5c_quiCv-2" value="Forecast" style="swimlane;whiteSpace=wrap;html=1;" parent="1" vertex="1">
          <mxGeometry x="230" y="380" width="91.88" height="120" as="geometry" />
        </mxCell>
      </root>
    </mxGraphModel>
  </diagram>
  <diagram id="td4fMwV4D-Kr7h88EOCO" name="GCP">
    <mxGraphModel dx="1092" dy="843" grid="1" gridSize="10" guides="1" tooltips="1" connect="1" arrows="1" fold="1" page="1" pageScale="1" pageWidth="827" pageHeight="1169" math="0" shadow="0">
      <root>
        <mxCell id="0" />
        <mxCell id="1" parent="0" />
        <mxCell id="OFdzaoj_6ZGFFOZJOrr8-17" value="" style="rounded=0;whiteSpace=wrap;html=1;" parent="1" vertex="1">
          <mxGeometry x="270" y="380" width="400" height="120" as="geometry" />
        </mxCell>
        <mxCell id="OFdzaoj_6ZGFFOZJOrr8-13" style="edgeStyle=none;html=1;entryX=0.8;entryY=0.8;entryDx=0;entryDy=0;entryPerimeter=0;exitX=0.25;exitY=0;exitDx=0;exitDy=0;" parent="1" source="OFdzaoj_6ZGFFOZJOrr8-11" target="OFdzaoj_6ZGFFOZJOrr8-9" edge="1">
          <mxGeometry relative="1" as="geometry" />
        </mxCell>
        <mxCell id="OFdzaoj_6ZGFFOZJOrr8-42" style="edgeStyle=none;html=1;entryX=0.5;entryY=0;entryDx=0;entryDy=0;" parent="1" source="OFdzaoj_6ZGFFOZJOrr8-11" target="OFdzaoj_6ZGFFOZJOrr8-40" edge="1">
          <mxGeometry relative="1" as="geometry" />
        </mxCell>
        <mxCell id="OFdzaoj_6ZGFFOZJOrr8-11" value="Cloud&#xa;NAT" style="sketch=0;html=1;verticalAlign=middle;labelPosition=right;verticalLabelPosition=middle;align=left;spacingTop=-6;fontSize=11;fontStyle=1;fontColor=#999999;shape=image;aspect=fixed;imageAspect=0;image=data:image/svg+xml,PHN2ZyB4bWxuczppbmtzY2FwZT0iaHR0cDovL3d3dy5pbmtzY2FwZS5vcmcvbmFtZXNwYWNlcy9pbmtzY2FwZSIgeG1sbnM6c29kaXBvZGk9Imh0dHA6Ly9zb2RpcG9kaS5zb3VyY2Vmb3JnZS5uZXQvRFREL3NvZGlwb2RpLTAuZHRkIiB4bWxucz0iaHR0cDovL3d3dy53My5vcmcvMjAwMC9zdmciIHhtbG5zOnN2Zz0iaHR0cDovL3d3dy53My5vcmcvMjAwMC9zdmciIHdpZHRoPSI5OS45OTczMDIyMDQ4OTI5NiIgaGVpZ2h0PSI5Ny44ODA4NTM5MDQyOTYzMyIgdmlld0JveD0iLTAuMDQ1Nzc2MzY3MTg3NSAxLjA4Nzc4ODU4MTg0ODE0NDUgOTkuOTk3Mjk5MTk0MzM1OTQgOTcuODgwODQ0MTE2MjEwOTQiIHZlcnNpb249IjEuMSIgaWQ9InN2ZzUiIGlua3NjYXBlOnZlcnNpb249IjEuMSAoYzY4ZTIyYzM4NywgMjAyMS0wNS0yMykiIHNvZGlwb2RpOmRvY25hbWU9ImNsb3VkX25hdC5zdmciPiYjeGE7ICA8c29kaXBvZGk6bmFtZWR2aWV3IGlkPSJuYW1lZHZpZXc3IiBwYWdlY29sb3I9IiNmZmZmZmYiIGJvcmRlcmNvbG9yPSIjNjY2NjY2IiBib3JkZXJvcGFjaXR5PSIxLjAiIGlua3NjYXBlOnBhZ2VzaGFkb3c9IjIiIGlua3NjYXBlOnBhZ2VvcGFjaXR5PSIwLjAiIGlua3NjYXBlOnBhZ2VjaGVja2VyYm9hcmQ9IjAiIGlua3NjYXBlOmRvY3VtZW50LXVuaXRzPSJtbSIgc2hvd2dyaWQ9ImZhbHNlIiBpbmtzY2FwZTp6b29tPSIwLjU3OTMzNzQ0IiBpbmtzY2FwZTpjeD0iLTQyLjI4OTY4OSIgaW5rc2NhcGU6Y3k9IjI1NC42MDExOSIgaW5rc2NhcGU6d2luZG93LXdpZHRoPSIxOTIwIiBpbmtzY2FwZTp3aW5kb3ctaGVpZ2h0PSIxMDE3IiBpbmtzY2FwZTp3aW5kb3cteD0iLTgiIGlua3NjYXBlOndpbmRvdy15PSItOCIgaW5rc2NhcGU6d2luZG93LW1heGltaXplZD0iMSIgaW5rc2NhcGU6Y3VycmVudC1sYXllcj0ibGF5ZXIxIiBmaXQtbWFyZ2luLXRvcD0iMCIgZml0LW1hcmdpbi1sZWZ0PSIwIiBmaXQtbWFyZ2luLXJpZ2h0PSIwIiBmaXQtbWFyZ2luLWJvdHRvbT0iMCIvPiYjeGE7ICA8ZGVmcyBpZD0iZGVmczIiLz4mI3hhOyAgPGcgaW5rc2NhcGU6bGFiZWw9IkxheWVyIDEiIGlua3NjYXBlOmdyb3VwbW9kZT0ibGF5ZXIiIGlkPSJsYXllcjEiIHRyYW5zZm9ybT0idHJhbnNsYXRlKDI1OC42MTk3NSwxNi42Njc3MTUpIj4mI3hhOyAgICA8cGF0aCBpZD0icGF0aDE3MzYyIiBzdHlsZT0ib3BhY2l0eToxO2ZpbGw6IzQyODVmNDtmaWxsLW9wYWNpdHk6MTtzdHJva2U6bm9uZTtzdHJva2Utd2lkdGg6MC45OTk5OTlweDtzdHJva2UtbGluZWNhcDpidXR0O3N0cm9rZS1saW5lam9pbjptaXRlcjtzdHJva2Utb3BhY2l0eToxIiBkPSJNIDE0MS40MTc5Nyw0LjExMTMyODEgMTI0LjQwMjM0LDI0LjM3NSBjIDU3Ljg5NTM3LDQ4LjYxNjQyNiA4My40MTQwNyw5Ni4wNjQ2NyA4My40MTQwNywxNjMuOTQzMzYgMCw3Mi4zMTIyOCAtMzYuMTA3MzEsMTI0LjgyOTc3IC04Mi4wMTk1MywxNjYuMDQ4ODMgbCAxNy42Nzk2OCwxOS42ODc1IGMgNDkuMjAyOTksLTQ0LjE3MzQyIDkwLjc5Njg4LC0xMDQuNDk4MzcgOTAuNzk2ODgsLTE4NS43MzYzMyAwLC03NC44ODE1MiAtMzEuMTU5NDEsLTEzMi4zOTkwMjIgLTkyLjg1NTQ3LC0xODQuMjA3MDMxOSB6IE0gOTYuNTU2NjQxLDc1Ljg4NDc2NiBWIDEwMi4zNDE4IEggMTY2LjQ4MzA1IEMgMTYyLjM5Mjc0LDk0LjU1NDQyIDE1OC40NTE0Myw4Ni44NDE1NDIgMTQ4LjAyMjMzLDc1Ljg4NDc2NiBaIE0gMzE3Ljc3OTMsMjAyLjMwNjY0IHYgMzIuMjkyOTcgbCA1OS45OTAyMywtNDUuNTE3NTggLTU5Ljk5MDIzLC00NS41MTc1OCB2IDMyLjI4NTE2IGggLTY0LjQ3NDYxIHYgMjYuNDU3MDMgeiBNIDUwLjA1ODU5NCwxNzUuODQ5NjEgdiAyNi40NTcwMyBIIDE4Ny4yODEyNSBjIDEuMTU3NDUsLTguMDQ3MzcgMS4yODIzMSwtMTYuNzgzMTUgMCwtMjYuNDU3MDMgeiBtIDQ3LjAzNzEwOSwxMDAuMDQ2ODcgdiAyNi40NTcwNCBoIDUwLjY4MjY3NyBjIDguMDE2NTcsLTguMDE0NjYgMTQuNDYxNjksLTE2LjgxNTA0IDE5LjIyMzU3LC0yNi40NTcwNCB6IiB0cmFuc2Zvcm09Im1hdHJpeCgwLjI2NDU4MzMzLDAsMCwwLjI2NDU4MzMzLC0yNTguNjE5NzUsLTE2LjY2NzcxNSkiIHNvZGlwb2RpOm5vZGV0eXBlcz0iY2NzY2NzY2NjY2NjY2NjY2NjY2NjY2NjY2NjY2NjIi8+JiN4YTsgICAgPHBhdGggaWQ9InBhdGgxNjI3MS03IiBzdHlsZT0iY29sb3I6IzAwMDAwMDtvcGFjaXR5OjE7ZmlsbDojNjY5ZGY2O3N0cm9rZS1saW5lam9pbjpyb3VuZDstaW5rc2NhcGUtc3Ryb2tlOm5vbmU7ZmlsbC1vcGFjaXR5OjEiIGQ9Im0gLTIzNy45NTQwOCw1MS45MDU2ODYgYyAtNC4zNDYzLDEwZS03IC03LjkyMzgyLDMuNTc3NTIxIC03LjkyMzgyLDcuOTIzODI4IDAsNC4zNDYzMDcgMy41Nzc1Miw3LjkyMzgyOCA3LjkyMzgyLDcuOTIzODI4IDQuMzQ2MzEsMCA3LjkyMzgzLC0zLjU3NzUyMSA3LjkyMzgzLC03LjkyMzgyOCAwLC00LjM0NjMwNyAtMy41Nzc1MiwtNy45MjM4MjcgLTcuOTIzODMsLTcuOTIzODI4IHogbSAwLDUgYyAxLjY0NDExLDAgMi45MjM4MywxLjI3OTcxOCAyLjkyMzgzLDIuOTIzODI4IDAsMS42NDQxMSAtMS4yNzk3MiwyLjkyMzgyOCAtMi45MjM4MywyLjkyMzgyOCAtMS42NDQxMSwwIC0yLjkyMzgyLC0xLjI3OTcxOCAtMi45MjM4MiwtMi45MjM4MjggMCwtMS42NDQxMSAxLjI3OTcxLC0yLjkyMzgyOCAyLjkyMzgyLC0yLjkyMzgyOCB6IG0gLTEyLjc4NzYxLC0zMS40ODg1OTMgYyAtNC4zNDYzLDEwZS03IC03LjkyMzgyLDMuNTc3NTIxIC03LjkyMzgyLDcuOTIzODI4IDAsNC4zNDYzMDcgMy41Nzc1Miw3LjkyMzgyOCA3LjkyMzgyLDcuOTIzODI4IDQuMzQ2MzEsMCA3LjkyMzgzLC0zLjU3NzUyMSA3LjkyMzgzLC03LjkyMzgyOCAwLC00LjM0NjMwNyAtMy41Nzc1MiwtNy45MjM4MjcgLTcuOTIzODMsLTcuOTIzODI4IHogbSAwLDUgYyAxLjY0NDExLDAgMi45MjM4MywxLjI3OTcxOCAyLjkyMzgzLDIuOTIzODI4IDAsMS42NDQxMSAtMS4yNzk3MiwyLjkyMzgyOCAtMi45MjM4MywyLjkyMzgyOCAtMS42NDQxMSwwIC0yLjkyMzgyLC0xLjI3OTcxOCAtMi45MjM4MiwtMi45MjM4MjggMCwtMS42NDQxMSAxLjI3OTcxLC0yLjkyMzgyOCAyLjkyMzgyLC0yLjkyMzgyOCB6IG0gMTIuNjE2NTIsLTMxLjQzMTQ5MjkgYyAtNC4zNDYzLDZlLTcgLTcuOTIzODIsMy41Nzc1MjA4IC03LjkyMzgyLDcuOTIzODI4MSAwLDQuMzQ2MzA2OCAzLjU3NzUyLDcuOTIzODI3OCA3LjkyMzgyLDcuOTIzODI3OCA0LjM0NjMxLDAgNy45MjM4MywtMy41Nzc1MjEgNy45MjM4MywtNy45MjM4Mjc4IDAsLTQuMzQ2MzA3MyAtMy41Nzc1MiwtNy45MjM4Mjc1IC03LjkyMzgzLC03LjkyMzgyODEgeiBtIDAsNSBjIDEuNjQ0MTEsMmUtNyAyLjkyMzgzLDEuMjc5NzE4NCAyLjkyMzgzLDIuOTIzODI4MSAwLDEuNjQ0MTA5NiAtMS4yNzk3MiwyLjkyMzgyNzkgLTIuOTIzODMsMi45MjM4Mjc5IC0xLjY0NDExLDAgLTIuOTIzODIsLTEuMjc5NzE4MyAtMi45MjM4MiwtMi45MjM4Mjc5IDAsLTEuNjQ0MTA5NyAxLjI3OTcxLC0yLjkyMzgyNzkgMi45MjM4MiwtMi45MjM4MjgxIHoiLz4mI3hhOyAgPC9nPiYjeGE7PC9zdmc+;" parent="1" vertex="1">
          <mxGeometry x="510" y="280" width="42" height="42" as="geometry" />
        </mxCell>
        <mxCell id="OFdzaoj_6ZGFFOZJOrr8-9" value="" style="ellipse;shape=cloud;whiteSpace=wrap;html=1;" parent="1" vertex="1">
          <mxGeometry x="400" y="162.5" width="120" height="80" as="geometry" />
        </mxCell>
        <mxCell id="OFdzaoj_6ZGFFOZJOrr8-16" value="VPC" style="text;html=1;align=center;verticalAlign=middle;whiteSpace=wrap;rounded=0;" parent="1" vertex="1">
          <mxGeometry x="440" y="470" width="60" height="30" as="geometry" />
        </mxCell>
        <mxCell id="OFdzaoj_6ZGFFOZJOrr8-18" style="edgeStyle=none;html=1;entryX=0.31;entryY=0.8;entryDx=0;entryDy=0;entryPerimeter=0;exitX=0.5;exitY=0;exitDx=0;exitDy=0;" parent="1" source="OFdzaoj_6ZGFFOZJOrr8-38" target="OFdzaoj_6ZGFFOZJOrr8-9" edge="1">
          <mxGeometry relative="1" as="geometry">
            <mxPoint x="360.07518796992485" y="390" as="sourcePoint" />
          </mxGeometry>
        </mxCell>
        <mxCell id="OFdzaoj_6ZGFFOZJOrr8-37" value="Public IP" style="edgeLabel;html=1;align=center;verticalAlign=middle;resizable=0;points=[];" parent="OFdzaoj_6ZGFFOZJOrr8-18" vertex="1" connectable="0">
          <mxGeometry x="0.0438" relative="1" as="geometry">
            <mxPoint x="1" as="offset" />
          </mxGeometry>
        </mxCell>
        <mxCell id="OFdzaoj_6ZGFFOZJOrr8-36" value="" style="group" parent="1" vertex="1" connectable="0">
          <mxGeometry x="90" y="140" width="140" height="125" as="geometry" />
        </mxCell>
        <mxCell id="OFdzaoj_6ZGFFOZJOrr8-33" value="" style="rounded=0;whiteSpace=wrap;html=1;" parent="OFdzaoj_6ZGFFOZJOrr8-36" vertex="1">
          <mxGeometry width="140" height="120" as="geometry" />
        </mxCell>
        <mxCell id="OFdzaoj_6ZGFFOZJOrr8-32" value="" style="edgeStyle=none;html=1;" parent="OFdzaoj_6ZGFFOZJOrr8-36" source="OFdzaoj_6ZGFFOZJOrr8-19" target="OFdzaoj_6ZGFFOZJOrr8-24" edge="1">
          <mxGeometry relative="1" as="geometry" />
        </mxCell>
        <mxCell id="OFdzaoj_6ZGFFOZJOrr8-19" value="" style="strokeWidth=2;dashed=0;align=center;fontSize=8;shape=rect;fillColor=#fffbc0;strokeColor=#000000;" parent="OFdzaoj_6ZGFFOZJOrr8-36" vertex="1">
          <mxGeometry x="57" y="5" width="26" height="18" as="geometry" />
        </mxCell>
        <mxCell id="OFdzaoj_6ZGFFOZJOrr8-20" value="" style="strokeWidth=2;dashed=0;align=center;fontSize=8;shape=rect;fillColor=#fffbc0;strokeColor=#000000;" parent="OFdzaoj_6ZGFFOZJOrr8-36" vertex="1">
          <mxGeometry x="10" y="23" width="26" height="18" as="geometry" />
        </mxCell>
        <mxCell id="OFdzaoj_6ZGFFOZJOrr8-21" value="" style="strokeWidth=2;dashed=0;align=center;fontSize=8;shape=rect;fillColor=#fffbc0;strokeColor=#000000;" parent="OFdzaoj_6ZGFFOZJOrr8-36" vertex="1">
          <mxGeometry x="104" y="23" width="26" height="18" as="geometry" />
        </mxCell>
        <mxCell id="OFdzaoj_6ZGFFOZJOrr8-22" value="" style="strokeWidth=2;dashed=0;align=center;fontSize=8;shape=rect;fillColor=#fffbc0;strokeColor=#000000;" parent="OFdzaoj_6ZGFFOZJOrr8-36" vertex="1">
          <mxGeometry x="10" y="59" width="26" height="18" as="geometry" />
        </mxCell>
        <mxCell id="OFdzaoj_6ZGFFOZJOrr8-23" value="" style="strokeWidth=2;dashed=0;align=center;fontSize=8;shape=rect;fillColor=#fffbc0;strokeColor=#000000;" parent="OFdzaoj_6ZGFFOZJOrr8-36" vertex="1">
          <mxGeometry x="104" y="59" width="26" height="18" as="geometry" />
        </mxCell>
        <mxCell id="OFdzaoj_6ZGFFOZJOrr8-24" value="" style="strokeWidth=2;dashed=0;align=center;fontSize=8;shape=rect;fillColor=#fffbc0;strokeColor=#000000;" parent="OFdzaoj_6ZGFFOZJOrr8-36" vertex="1">
          <mxGeometry x="57" y="77" width="26" height="18" as="geometry" />
        </mxCell>
        <mxCell id="OFdzaoj_6ZGFFOZJOrr8-25" value="" style="strokeWidth=2;dashed=0;align=center;fontSize=8;shape=rect;fillColor=#c0f5a9;strokeColor=#000000;" parent="OFdzaoj_6ZGFFOZJOrr8-36" vertex="1">
          <mxGeometry x="57" y="41" width="26" height="18" as="geometry" />
        </mxCell>
        <mxCell id="OFdzaoj_6ZGFFOZJOrr8-26" value="" style="edgeStyle=none;endArrow=none;dashed=0;html=1;strokeWidth=2;" parent="OFdzaoj_6ZGFFOZJOrr8-36" source="OFdzaoj_6ZGFFOZJOrr8-25" target="OFdzaoj_6ZGFFOZJOrr8-19" edge="1">
          <mxGeometry relative="1" as="geometry" />
        </mxCell>
        <mxCell id="OFdzaoj_6ZGFFOZJOrr8-27" value="" style="edgeStyle=none;endArrow=none;dashed=0;html=1;strokeWidth=2;" parent="OFdzaoj_6ZGFFOZJOrr8-36" source="OFdzaoj_6ZGFFOZJOrr8-25" target="OFdzaoj_6ZGFFOZJOrr8-20" edge="1">
          <mxGeometry relative="1" as="geometry" />
        </mxCell>
        <mxCell id="OFdzaoj_6ZGFFOZJOrr8-28" value="" style="edgeStyle=none;endArrow=none;dashed=0;html=1;strokeWidth=2;" parent="OFdzaoj_6ZGFFOZJOrr8-36" source="OFdzaoj_6ZGFFOZJOrr8-25" target="OFdzaoj_6ZGFFOZJOrr8-21" edge="1">
          <mxGeometry relative="1" as="geometry" />
        </mxCell>
        <mxCell id="OFdzaoj_6ZGFFOZJOrr8-29" value="" style="edgeStyle=none;endArrow=none;dashed=0;html=1;strokeWidth=2;" parent="OFdzaoj_6ZGFFOZJOrr8-36" source="OFdzaoj_6ZGFFOZJOrr8-25" target="OFdzaoj_6ZGFFOZJOrr8-22" edge="1">
          <mxGeometry relative="1" as="geometry" />
        </mxCell>
        <mxCell id="OFdzaoj_6ZGFFOZJOrr8-30" value="" style="edgeStyle=none;endArrow=none;dashed=0;html=1;strokeWidth=2;" parent="OFdzaoj_6ZGFFOZJOrr8-36" source="OFdzaoj_6ZGFFOZJOrr8-25" target="OFdzaoj_6ZGFFOZJOrr8-23" edge="1">
          <mxGeometry relative="1" as="geometry" />
        </mxCell>
        <mxCell id="OFdzaoj_6ZGFFOZJOrr8-31" value="" style="edgeStyle=none;endArrow=none;dashed=0;html=1;strokeWidth=2;" parent="OFdzaoj_6ZGFFOZJOrr8-36" source="OFdzaoj_6ZGFFOZJOrr8-25" target="OFdzaoj_6ZGFFOZJOrr8-24" edge="1">
          <mxGeometry relative="1" as="geometry" />
        </mxCell>
        <mxCell id="OFdzaoj_6ZGFFOZJOrr8-34" value="MQTT broker" style="text;html=1;align=center;verticalAlign=middle;whiteSpace=wrap;rounded=0;" parent="OFdzaoj_6ZGFFOZJOrr8-36" vertex="1">
          <mxGeometry x="20" y="95" width="100" height="30" as="geometry" />
        </mxCell>
        <mxCell id="OFdzaoj_6ZGFFOZJOrr8-58" style="edgeStyle=none;html=1;exitX=1;exitY=0.5;exitDx=0;exitDy=0;entryX=0;entryY=0.75;entryDx=0;entryDy=0;" parent="1" source="OFdzaoj_6ZGFFOZJOrr8-38" target="OFdzaoj_6ZGFFOZJOrr8-40" edge="1">
          <mxGeometry relative="1" as="geometry" />
        </mxCell>
        <mxCell id="OFdzaoj_6ZGFFOZJOrr8-38" value="" style="strokeColor=#dddddd;shadow=1;strokeWidth=1;rounded=1;absoluteArcSize=1;arcSize=2;" parent="1" vertex="1">
          <mxGeometry x="280" y="390" width="150" height="70" as="geometry" />
        </mxCell>
        <mxCell id="OFdzaoj_6ZGFFOZJOrr8-39" value="&lt;font color=&quot;#000000&quot;&gt;Storm manager&lt;/font&gt;&lt;br&gt;Compute Engine&lt;hr&gt;IP: 10.148.0.20" style="sketch=0;dashed=0;connectable=0;html=1;part=1;labelPosition=right;verticalLabelPosition=middle;align=left;verticalAlign=top;spacingLeft=5;fontColor=#999999;fontSize=12;spacingTop=-8;shape=image;image=data:image/svg+xml,PHN2ZyB4bWxucz0iaHR0cDovL3d3dy53My5vcmcvMjAwMC9zdmciIHhtbG5zOnY9Imh0dHBzOi8vdmVjdGEuaW8vbmFubyIgd2lkdGg9IjIwIiBoZWlnaHQ9IjIwIiB2aWV3Qm94PSIwIDAgMjAgMjAiPiYjeGE7CTxzdHlsZSB0eXBlPSJ0ZXh0L2NzcyI+JiN4YTsJLnN0MHtmaWxsOiM0Mjg1ZjQ7fSYjeGE7CS5zdDF7ZmlsbDojNjY5ZGY2O30mI3hhOwkuc3Qye2ZpbGw6I2FlY2JmYTt9JiN4YTsJPC9zdHlsZT4mI3hhOwk8cGF0aCBjbGFzcz0ic3QyIiBkPSJNNyA3aDZ2Nkg3eiIvPiYjeGE7CTxwYXRoIGNsYXNzPSJzdDEiIGQ9Ik05IDBoMnY0SDl6TTUgMGgydjRINXptOCAwaDJ2NGgtMnoiLz4mI3hhOwk8cGF0aCBjbGFzcz0ic3QwIiBkPSJNOSAxNmgydjRIOXptLTQgMGgydjRINXptOCAwaDJ2NGgtMnptMy01VjloNHYyem0wIDR2LTJoNHYyem0wLThWNWg0djJ6Ii8+JiN4YTsJPHBhdGggY2xhc3M9InN0MSIgZD0iTTAgMTFWOWg0djJ6bTAgNHYtMmg0djJ6bTAtOFY1aDR2MnoiLz4mI3hhOwk8cGF0aCBjbGFzcz0ic3QyIiBkPSJNMyAzdjE0aDE0VjN6bTEyIDEySDVWNWgxMHoiLz4mI3hhOwk8cGF0aCBjbGFzcz0ic3QxIiBkPSJNMTAgMTBsLTMgM2g2eiIvPiYjeGE7CTxwYXRoIGNsYXNzPSJzdDAiIGQ9Ik0xMyA3bC0zIDMgMyAzeiIvPiYjeGE7PC9zdmc+;" parent="OFdzaoj_6ZGFFOZJOrr8-38" vertex="1">
          <mxGeometry width="42" height="42" relative="1" as="geometry">
            <mxPoint x="5" y="7" as="offset" />
          </mxGeometry>
        </mxCell>
        <mxCell id="OFdzaoj_6ZGFFOZJOrr8-40" value="" style="shape=mxgraph.gcp2.doubleRect;strokeColor=#dddddd;shadow=1;strokeWidth=1;" parent="1" vertex="1">
          <mxGeometry x="488" y="392" width="170" height="78" as="geometry" />
        </mxCell>
        <mxCell id="OFdzaoj_6ZGFFOZJOrr8-41" value="&lt;font color=&quot;#000000&quot;&gt;Storm workers&lt;/font&gt;&lt;br&gt;Compute Engine&lt;hr&gt;&lt;font style=&quot;font-size: 11px&quot;&gt;IPs: 10.148.0.[21-25]&lt;/font&gt;" style="sketch=0;dashed=0;connectable=0;html=1;part=1;labelPosition=right;verticalLabelPosition=middle;align=left;verticalAlign=top;spacingLeft=5;fontColor=#999999;fontSize=12;spacingTop=-8;shape=image;image=data:image/svg+xml,PHN2ZyB4bWxucz0iaHR0cDovL3d3dy53My5vcmcvMjAwMC9zdmciIHhtbG5zOnY9Imh0dHBzOi8vdmVjdGEuaW8vbmFubyIgd2lkdGg9IjIwIiBoZWlnaHQ9IjIwIiB2aWV3Qm94PSIwIDAgMjAgMjAiPiYjeGE7CTxzdHlsZSB0eXBlPSJ0ZXh0L2NzcyI+JiN4YTsJLnN0MHtmaWxsOiM0Mjg1ZjQ7fSYjeGE7CS5zdDF7ZmlsbDojNjY5ZGY2O30mI3hhOwkuc3Qye2ZpbGw6I2FlY2JmYTt9JiN4YTsJPC9zdHlsZT4mI3hhOwk8cGF0aCBjbGFzcz0ic3QyIiBkPSJNNyA3aDZ2Nkg3eiIvPiYjeGE7CTxwYXRoIGNsYXNzPSJzdDEiIGQ9Ik05IDBoMnY0SDl6TTUgMGgydjRINXptOCAwaDJ2NGgtMnoiLz4mI3hhOwk8cGF0aCBjbGFzcz0ic3QwIiBkPSJNOSAxNmgydjRIOXptLTQgMGgydjRINXptOCAwaDJ2NGgtMnptMy01VjloNHYyem0wIDR2LTJoNHYyem0wLThWNWg0djJ6Ii8+JiN4YTsJPHBhdGggY2xhc3M9InN0MSIgZD0iTTAgMTFWOWg0djJ6bTAgNHYtMmg0djJ6bTAtOFY1aDR2MnoiLz4mI3hhOwk8cGF0aCBjbGFzcz0ic3QyIiBkPSJNMyAzdjE0aDE0VjN6bTEyIDEySDVWNWgxMHoiLz4mI3hhOwk8cGF0aCBjbGFzcz0ic3QxIiBkPSJNMTAgMTBsLTMgM2g2eiIvPiYjeGE7CTxwYXRoIGNsYXNzPSJzdDAiIGQ9Ik0xMyA3bC0zIDMgMyAzeiIvPiYjeGE7PC9zdmc+;" parent="OFdzaoj_6ZGFFOZJOrr8-40" vertex="1">
          <mxGeometry width="42" height="42" relative="1" as="geometry">
            <mxPoint x="5" y="7" as="offset" />
          </mxGeometry>
        </mxCell>
        <mxCell id="OFdzaoj_6ZGFFOZJOrr8-45" style="edgeStyle=none;html=1;entryX=0.13;entryY=0.77;entryDx=0;entryDy=0;entryPerimeter=0;exitX=0.5;exitY=0;exitDx=0;exitDy=0;" parent="1" source="OFdzaoj_6ZGFFOZJOrr8-46" target="OFdzaoj_6ZGFFOZJOrr8-9" edge="1">
          <mxGeometry relative="1" as="geometry">
            <mxPoint x="210" y="310" as="targetPoint" />
            <mxPoint x="189.64155084125832" y="390" as="sourcePoint" />
          </mxGeometry>
        </mxCell>
        <mxCell id="OFdzaoj_6ZGFFOZJOrr8-48" value="Public IP" style="edgeLabel;html=1;align=center;verticalAlign=middle;resizable=0;points=[];" parent="OFdzaoj_6ZGFFOZJOrr8-45" vertex="1" connectable="0">
          <mxGeometry x="0.0302" y="3" relative="1" as="geometry">
            <mxPoint as="offset" />
          </mxGeometry>
        </mxCell>
        <mxCell id="OFdzaoj_6ZGFFOZJOrr8-49" style="edgeStyle=none;html=1;startArrow=classic;startFill=1;" parent="1" source="OFdzaoj_6ZGFFOZJOrr8-46" target="OFdzaoj_6ZGFFOZJOrr8-38" edge="1">
          <mxGeometry relative="1" as="geometry" />
        </mxCell>
        <mxCell id="OFdzaoj_6ZGFFOZJOrr8-50" value="Wireguard&lt;div&gt;tunnel&lt;/div&gt;" style="edgeLabel;html=1;align=center;verticalAlign=middle;resizable=0;points=[];" parent="OFdzaoj_6ZGFFOZJOrr8-49" vertex="1" connectable="0">
          <mxGeometry x="-0.125" relative="1" as="geometry">
            <mxPoint as="offset" />
          </mxGeometry>
        </mxCell>
        <mxCell id="OFdzaoj_6ZGFFOZJOrr8-46" value="" style="strokeColor=#dddddd;shadow=1;strokeWidth=1;rounded=1;absoluteArcSize=1;arcSize=2;" parent="1" vertex="1">
          <mxGeometry x="30" y="390" width="150" height="70" as="geometry" />
        </mxCell>
        <mxCell id="OFdzaoj_6ZGFFOZJOrr8-47" value="&lt;font color=&quot;#000000&quot;&gt;Storm forecast&lt;/font&gt;&lt;br&gt;Compute Engine&lt;hr&gt;IP: 10.148.0.11" style="sketch=0;dashed=0;connectable=0;html=1;part=1;labelPosition=right;verticalLabelPosition=middle;align=left;verticalAlign=top;spacingLeft=5;fontColor=#999999;fontSize=12;spacingTop=-8;shape=image;image=data:image/svg+xml,PHN2ZyB4bWxucz0iaHR0cDovL3d3dy53My5vcmcvMjAwMC9zdmciIHhtbG5zOnY9Imh0dHBzOi8vdmVjdGEuaW8vbmFubyIgd2lkdGg9IjIwIiBoZWlnaHQ9IjIwIiB2aWV3Qm94PSIwIDAgMjAgMjAiPiYjeGE7CTxzdHlsZSB0eXBlPSJ0ZXh0L2NzcyI+JiN4YTsJLnN0MHtmaWxsOiM0Mjg1ZjQ7fSYjeGE7CS5zdDF7ZmlsbDojNjY5ZGY2O30mI3hhOwkuc3Qye2ZpbGw6I2FlY2JmYTt9JiN4YTsJPC9zdHlsZT4mI3hhOwk8cGF0aCBjbGFzcz0ic3QyIiBkPSJNNyA3aDZ2Nkg3eiIvPiYjeGE7CTxwYXRoIGNsYXNzPSJzdDEiIGQ9Ik05IDBoMnY0SDl6TTUgMGgydjRINXptOCAwaDJ2NGgtMnoiLz4mI3hhOwk8cGF0aCBjbGFzcz0ic3QwIiBkPSJNOSAxNmgydjRIOXptLTQgMGgydjRINXptOCAwaDJ2NGgtMnptMy01VjloNHYyem0wIDR2LTJoNHYyem0wLThWNWg0djJ6Ii8+JiN4YTsJPHBhdGggY2xhc3M9InN0MSIgZD0iTTAgMTFWOWg0djJ6bTAgNHYtMmg0djJ6bTAtOFY1aDR2MnoiLz4mI3hhOwk8cGF0aCBjbGFzcz0ic3QyIiBkPSJNMyAzdjE0aDE0VjN6bTEyIDEySDVWNWgxMHoiLz4mI3hhOwk8cGF0aCBjbGFzcz0ic3QxIiBkPSJNMTAgMTBsLTMgM2g2eiIvPiYjeGE7CTxwYXRoIGNsYXNzPSJzdDAiIGQ9Ik0xMyA3bC0zIDMgMyAzeiIvPiYjeGE7PC9zdmc+;" parent="OFdzaoj_6ZGFFOZJOrr8-46" vertex="1">
          <mxGeometry width="42" height="42" relative="1" as="geometry">
            <mxPoint x="5" y="7" as="offset" />
          </mxGeometry>
        </mxCell>
        <mxCell id="OFdzaoj_6ZGFFOZJOrr8-55" style="edgeStyle=none;html=1;entryX=0.07;entryY=0.4;entryDx=0;entryDy=0;entryPerimeter=0;" parent="1" source="OFdzaoj_6ZGFFOZJOrr8-33" target="OFdzaoj_6ZGFFOZJOrr8-9" edge="1">
          <mxGeometry relative="1" as="geometry" />
        </mxCell>
        <mxCell id="OFdzaoj_6ZGFFOZJOrr8-56" value="" style="endArrow=classic;html=1;exitX=1;exitY=0.5;exitDx=0;exitDy=0;entryX=0;entryY=0.25;entryDx=0;entryDy=0;" parent="1" source="OFdzaoj_6ZGFFOZJOrr8-38" target="OFdzaoj_6ZGFFOZJOrr8-40" edge="1">
          <mxGeometry width="50" height="50" relative="1" as="geometry">
            <mxPoint x="330" y="360" as="sourcePoint" />
            <mxPoint x="380" y="310" as="targetPoint" />
          </mxGeometry>
        </mxCell>
      </root>
    </mxGraphModel>
  </diagram>
</mxfile>
